<svg width="24" height="24" viewBox="0 0 24 24" fill="none" xmlns="http://www.w3.org/2000/svg">
<g clip-path="url(#clip0_598_4080)">
<mask id="mask0_598_4080" style="mask-type:luminance" maskUnits="userSpaceOnUse" x="0" y="0" width="24" height="24">
<path d="M0 1.90735e-06H24V24H0V1.90735e-06Z" fill="white"/>
</mask>
<g mask="url(#mask0_598_4080)">
<path fill-rule="evenodd" clip-rule="evenodd" d="M17.7342 13.7155H20.5989V15.0333C20.5989 15.3498 20.3399 15.6078 20.025 15.6078H10.6976C10.6976 14.7793 10.6976 14.3578 11.3314 14.3578L12.5937 14.3564C13.3883 14.3551 13.9092 14.1516 14.2002 13.7155H17.7342Z" fill="#6F6571"/>
<path fill-rule="evenodd" clip-rule="evenodd" d="M11.8226 15.6078H20.0249C20.5059 16.4455 20.8926 17.4522 20.5591 19.3778C20.001 17.4788 14.3326 18.2368 13.7506 20.4283H7.49624C7.25971 19.8924 7.03649 19.3631 6.84116 18.8285H8.60441C12.1708 17.4828 11.0241 18.0825 11.8226 15.6078Z" fill="#FFE07D"/>
<path fill-rule="evenodd" clip-rule="evenodd" d="M11.3164 10.4601C11.4386 11.1037 11.6047 11.738 11.7907 12.2779L13.5937 12.9844L15.6042 12.2779C15.5338 8.47333 14.112 6.64881 12.9029 6.05842C12.467 5.72659 12.0206 5.60158 12.0206 5.60158C12.0206 5.60158 11.4333 6.54114 11.4027 6.54114C11.1769 7.07837 11.0918 7.7792 11.1064 8.53586L11.3164 10.4601Z" fill="#ECEAEC"/>
<path fill-rule="evenodd" clip-rule="evenodd" d="M15.6042 12.2779H11.7907C10.9124 12.3737 9.83215 13.0425 9.83215 15.1144V17.286H11.8226V15.6078C11.8226 14.7793 11.8226 14.3577 12.4564 14.3577L13.7187 14.3564C14.5133 14.3551 15.0342 14.1516 15.3252 13.7155C15.5497 13.379 15.6361 12.9042 15.6042 12.2779Z" fill="#FF8086"/>
<path fill-rule="evenodd" clip-rule="evenodd" d="M15.6042 12.2779C15.5338 8.47335 14.112 6.64883 12.9029 6.05839C12.7235 6.18477 12.5242 6.2885 12.305 6.36561C13.3759 7.17542 14.4495 8.98531 14.5107 12.2779H15.6042Z" fill="#DAD8DB"/>
<path fill-rule="evenodd" clip-rule="evenodd" d="M15.6042 12.2779H14.5107C14.5426 12.9042 14.4562 13.379 14.2317 13.7155C14.0483 13.9907 13.7719 14.2234 13.3932 14.3564H13.7187C14.5133 14.3551 15.0342 14.1516 15.3252 13.7155C15.5497 13.379 15.6361 12.9042 15.6042 12.2779Z" fill="#F76672"/>
<path d="M11.3164 10.4601C11.4386 11.1037 11.6047 11.738 11.7907 12.2779H15.6042C15.5338 8.47333 14.112 6.64882 12.9029 6.05842M11.4027 6.54114C11.1769 7.07838 11.0918 7.77921 11.1064 8.53586" stroke="black" stroke-width="0.703125" stroke-miterlimit="10" stroke-linecap="round" stroke-linejoin="round"/>
<path fill-rule="evenodd" clip-rule="evenodd" d="M17.7342 10.738H23.6484V12.7926C23.6484 13.3006 23.2339 13.7155 22.7263 13.7155H20.5989L19.33 14.3564L17.7342 13.7155V10.738Z" fill="#FFE07D"/>
<path fill-rule="evenodd" clip-rule="evenodd" d="M18.6563 7.75657H22.7263C23.2339 7.75657 23.6484 8.17151 23.6484 8.67945V10.2061H17.7342V8.67945C17.7342 8.17151 18.1488 7.75657 18.6563 7.75657Z" fill="#FFE07D"/>
<path fill-rule="evenodd" clip-rule="evenodd" d="M17.7342 9.74597H23.6484V11.1968H17.7342V9.74597Z" fill="#FF8086"/>
<path fill-rule="evenodd" clip-rule="evenodd" d="M22.414 9.74597H23.1714H23.6484V8.67947C23.6484 8.33241 23.4544 8.02917 23.1714 7.87228C23.0385 7.79916 22.8871 7.7566 22.7263 7.7566H21.4919C21.9995 7.7566 22.414 8.17149 22.414 8.67947V9.74597Z" fill="#FFC269"/>
<path fill-rule="evenodd" clip-rule="evenodd" d="M22.414 11.1968H23.1714H23.6484V10.738V10.2061V9.74598H23.1714H22.414V10.2061V10.738V11.1968Z" fill="#F76672"/>
<path fill-rule="evenodd" clip-rule="evenodd" d="M22.414 11.1968V12.7926C22.414 13.3005 21.9995 13.7154 21.4919 13.7154H22.7263C22.8871 13.7154 23.0385 13.6742 23.1714 13.6011C23.4544 13.4428 23.6484 13.1396 23.6484 12.7926V11.1968H23.1714H22.414Z" fill="#FFC269"/>
<path d="M17.7342 13.7155H22.7263C23.2339 13.7155 23.6484 13.3005 23.6484 12.7926V8.67945C23.6484 8.17152 23.2339 7.75658 22.7263 7.75658H18.6563C18.1488 7.75658 17.7342 8.17152 17.7342 8.67945V13.7155Z" stroke="black" stroke-width="0.703125" stroke-miterlimit="10" stroke-linecap="round" stroke-linejoin="round"/>
<path d="M17.7342 11.1968H23.6484V9.74597H17.7342V11.1968Z" stroke="black" stroke-width="0.703125" stroke-miterlimit="10" stroke-linecap="round" stroke-linejoin="round"/>
<path fill-rule="evenodd" clip-rule="evenodd" d="M13.7506 20.4283C13.7506 18.4615 15.3092 16.895 17.2319 16.895C18.7959 16.895 20.1193 17.9323 20.5591 19.3778C20.6495 19.6743 20.7026 19.9895 20.7119 20.3166C20.7159 20.4443 20.6282 20.4283 20.5086 20.4283C18.2564 20.4283 16.0028 20.427 13.7506 20.4283Z" fill="#FF8086"/>
<path fill-rule="evenodd" clip-rule="evenodd" d="M14.6263 20.4283H19.9253C19.8496 21.8565 18.6922 22.9922 17.2758 22.9922C15.8594 22.9922 14.702 21.8565 14.6263 20.4283Z" fill="#6F6571"/>
<path fill-rule="evenodd" clip-rule="evenodd" d="M1.17007 19.8631L5.72899 20.9124C5.43935 22.1717 4.18366 22.959 2.92535 22.669C1.66568 22.3792 0.880379 21.1225 1.17007 19.8631Z" fill="#6F6571"/>
<path fill-rule="evenodd" clip-rule="evenodd" d="M0.828578 18.5852C1.47302 17.6477 2.59183 17.1038 3.76112 17.2209C5.82334 17.657 6.49436 18.8897 6.62856 20.427C6.62589 20.6358 6.6033 20.8459 6.55811 21.056C6.54484 21.1145 6.50631 21.0905 6.44251 21.076L5.72898 20.9124L1.17006 19.8632L0.828578 19.7847L0.351578 19.6743C0.443265 19.2727 0.607984 18.9057 0.828578 18.5852Z" fill="#ECEAEC"/>
<path fill-rule="evenodd" clip-rule="evenodd" d="M3.75714 17.2155L5.59877 10.8431L6.42794 10.472L7.35536 10.8431C6.13694 14.2208 6.47706 16.5785 7.29958 18.8285C7.49622 19.3631 7.71944 19.8924 7.95461 20.4283H6.62988L3.75714 17.2155Z" fill="#FF8086"/>
<path fill-rule="evenodd" clip-rule="evenodd" d="M9.4601 3.698L11.6207 3.23792C11.8399 3.25784 12.467 3.78448 12.467 4.11425L12.0073 6.45204C11.816 6.50923 11.6126 6.54111 11.4027 6.54111C10.2521 6.54111 9.31928 5.60628 9.31928 4.4547C9.31928 4.18737 9.36841 3.93204 9.4601 3.698Z" fill="#FFECE4"/>
<path fill-rule="evenodd" clip-rule="evenodd" d="M8.76251 3.69799C8.76251 2.21126 9.93978 1.00779 11.3934 1.00779C12.8471 1.00779 14.0243 2.21126 14.0243 3.69799C14.0243 4.67942 13.6257 5.55176 12.9029 6.05839C12.6451 6.24059 12.3448 6.37489 12.0073 6.45204V4.11425C12.0073 3.78448 11.8399 3.71796 11.6207 3.69799H9.46011H8.76251Z" fill="#FF8086"/>
<path fill-rule="evenodd" clip-rule="evenodd" d="M10.0169 1.40543C10.4168 1.15272 10.8885 1.00783 11.3934 1.00783C12.8471 1.00783 14.0243 2.21126 14.0243 3.69799C14.0243 4.67941 13.6257 5.55176 12.9029 6.05843C12.7195 6.18743 12.5162 6.29247 12.293 6.36958C12.8272 5.82836 13.1168 5.05174 13.1168 4.19538C13.1168 2.64218 11.8851 1.38283 10.3663 1.38283C10.248 1.38283 10.1311 1.38944 10.0169 1.40543Z" fill="#F76672"/>
<path fill-rule="evenodd" clip-rule="evenodd" d="M9.83214 17.286H11.8226V18.54C11.8226 18.8086 11.6764 18.8285 11.4612 18.8285H8.60439C8.54725 17.5706 9.30864 17.286 9.83214 17.286Z" fill="#6F6571"/>
<path fill-rule="evenodd" clip-rule="evenodd" d="M7.29957 18.8285C6.4771 16.5785 6.13693 14.2208 7.35535 10.8431H6.67243H6.66441H6.4186C5.20013 14.2208 5.53899 16.5785 6.36282 18.8285C6.55815 19.3631 6.78136 19.8924 7.0179 20.4283H7.49621H7.95465C7.71947 19.8924 7.49621 19.3631 7.29957 18.8285Z" fill="#F76672"/>
<path fill-rule="evenodd" clip-rule="evenodd" d="M6.62855 20.427L3.76112 17.2209C3.46482 17.1916 3.17115 17.2035 2.88816 17.2554L5.64395 20.3366C5.64127 20.5161 5.62402 20.6983 5.58948 20.8804L5.72898 20.9124L6.44251 21.076C6.5063 21.0905 6.54484 21.1145 6.55815 21.056C6.60329 20.8459 6.62588 20.6358 6.62855 20.427Z" fill="#DAD8DB"/>
<path fill-rule="evenodd" clip-rule="evenodd" d="M20.025 15.6078H11.8226V16.3298H18.562C19.1108 16.3298 19.3712 16.5666 19.5851 17.0466C19.7699 17.4629 19.7739 17.5985 19.8575 18.1012C20.1724 18.4669 20.4143 18.9004 20.5591 19.3778C20.8926 17.4522 20.5059 16.4455 20.025 15.6078Z" fill="#FFC269"/>
<path fill-rule="evenodd" clip-rule="evenodd" d="M19.8575 18.1012C19.2197 17.3604 18.2803 16.895 17.2319 16.895C16.9688 16.895 16.7137 16.9243 16.4679 16.9788C18.0372 17.3339 19.1347 18.7195 19.1826 20.3166C19.1852 20.4044 19.1453 20.4243 19.0815 20.4283H19.9253H20.5087C20.6282 20.4283 20.7159 20.4443 20.712 20.3166C20.7026 19.9895 20.6495 19.6743 20.5591 19.3778C20.5564 19.3685 20.5538 19.3605 20.5511 19.3525V19.3512C20.405 18.8844 20.1671 18.4602 19.8575 18.1012Z" fill="#F76672"/>
<path fill-rule="evenodd" clip-rule="evenodd" d="M5.58948 20.8804L1.17006 19.8631C1.12089 20.0719 1.10364 20.282 1.1116 20.4869L4.61949 21.294L4.75768 21.3259C4.62746 21.8978 4.29662 22.3725 3.85679 22.693C4.7537 22.5347 5.51242 21.8565 5.72898 20.9124L5.58948 20.8804Z" fill="#5D5360"/>
<path fill-rule="evenodd" clip-rule="evenodd" d="M19.0816 20.4283H14.6263C14.6409 20.7076 14.698 20.9762 14.7897 21.2276H17.8937H18.7374C18.7042 21.8525 18.465 22.4203 18.0877 22.8632C19.1121 22.5268 19.8655 21.5706 19.9253 20.4283H19.0816Z" fill="#5D5360"/>
<path fill-rule="evenodd" clip-rule="evenodd" d="M20.599 15.0333V13.7155H18.7985V15.0333C18.7985 15.3498 18.5394 15.6078 18.2245 15.6078H20.025C20.3399 15.6078 20.599 15.3498 20.599 15.0333Z" fill="#5D5360"/>
<path fill-rule="evenodd" clip-rule="evenodd" d="M9.32989 4.23125H11.1051C11.3243 4.25122 11.4918 4.31905 11.4918 4.64881V6.53848C11.6698 6.53051 11.8426 6.50126 12.0073 6.45205V4.11425C12.0073 3.78448 11.8399 3.71797 11.6207 3.698H9.46011C9.395 3.86558 9.34981 4.04506 9.32989 4.23125Z" fill="#FFDDCE"/>
<path d="M11.3934 1.00781C9.93978 1.00781 8.76251 2.21128 8.76251 3.69801H11.6207C11.8399 3.71793 12.0073 3.78445 12.0073 4.11426V6.45206C13.2909 6.15946 14.0243 5.03048 14.0243 3.69801C14.0243 2.21128 12.8471 1.00781 11.3934 1.00781Z" stroke="black" stroke-width="0.703125" stroke-miterlimit="10" stroke-linecap="round" stroke-linejoin="round"/>
<path d="M9.4601 3.698C9.36841 3.93204 9.31928 4.18737 9.31928 4.4547C9.31928 5.60628 10.2521 6.54111 11.4027 6.54111C11.6126 6.54111 11.816 6.50923 12.0073 6.45204" stroke="black" stroke-width="0.703125" stroke-miterlimit="10" stroke-linecap="round" stroke-linejoin="round"/>
<path fill-rule="evenodd" clip-rule="evenodd" d="M5.21477 8.8364L7.70084 9.65821C7.82309 9.76724 7.6849 10.879 7.60249 10.8431H5.59877H4.71251V9.01325C4.71251 8.65288 4.89987 8.73266 5.21477 8.8364Z" fill="#FFE07D"/>
<path fill-rule="evenodd" clip-rule="evenodd" d="M8.85951 10.843H8.65092H7.60251C6.92751 10.843 6.90759 9.72335 7.70086 9.65824L8.85951 9.5651L9.17043 10.2234L8.85951 10.843Z" fill="#FFECE4"/>
<path fill-rule="evenodd" clip-rule="evenodd" d="M11.1064 8.53588L11.5223 8.17813C12.564 7.28052 13.8809 8.79514 12.4883 9.69941L11.3164 10.4601L10.7264 10.8431H8.85952V9.56511L10.0195 9.4707L11.1064 8.53588Z" fill="#FF8086"/>
<path fill-rule="evenodd" clip-rule="evenodd" d="M8.85951 10.843V10.2234H8.61103H8.47682H8.26687H7.21851C7.17867 10.2234 7.14145 10.2207 7.10559 10.2128C7.06706 10.5213 7.2411 10.843 7.60251 10.843H8.65092H8.85951Z" fill="#FFDDCE"/>
<path fill-rule="evenodd" clip-rule="evenodd" d="M12.4883 9.69941C13.3307 9.15153 13.1819 8.38161 12.7022 8.05714C12.7408 8.38958 12.5827 8.77119 12.1043 9.08108L11.1915 9.67283L10.9337 9.84172L10.3437 10.2234H8.85952V10.843H10.7264L11.3164 10.4601L12.4883 9.69941Z" fill="#F76672"/>
<path fill-rule="evenodd" clip-rule="evenodd" d="M7.70085 9.65822L6.7003 9.32841C6.36547 9.68747 6.20338 10.3869 6.41863 10.843H7.35538H7.6025C7.2411 10.843 7.06705 10.5212 7.10558 10.2128C7.14013 9.94547 7.33278 9.68878 7.70085 9.65822Z" fill="#FFC269"/>
<path d="M11.5223 8.17813L10.0195 9.4707L8.86348 9.5638L7.70084 9.6582C6.90758 9.72336 6.92754 10.8431 7.6025 10.8431H10.7264L12.4883 9.69941C13.8808 8.79514 12.5641 7.28052 11.5223 8.17813Z" stroke="black" stroke-width="0.703125" stroke-miterlimit="10" stroke-linecap="round" stroke-linejoin="round"/>
<path d="M7.60252 10.843H4.71249V9.01328C4.71249 8.65286 4.89985 8.73269 5.2148 8.83638L7.70086 9.65824C6.9076 9.72335 6.92752 10.843 7.60252 10.843Z" stroke="black" stroke-width="0.703125" stroke-miterlimit="10" stroke-linecap="round" stroke-linejoin="round"/>
<path d="M8.86349 10.843V9.56378" stroke="black" stroke-width="0.703125" stroke-miterlimit="10" stroke-linecap="round" stroke-linejoin="round"/>
<path d="M16.525 15.6078H20.025C20.3399 15.6078 20.5989 15.3498 20.5989 15.0333V13.7155H15.3252M11.8226 15.6078H14.9492" stroke="black" stroke-width="0.703125" stroke-miterlimit="10" stroke-linecap="round" stroke-linejoin="round"/>
<path d="M2.92534 22.6691C1.66567 22.3791 0.880419 21.1225 1.17006 19.8632L5.72898 20.9124C5.43934 22.1717 4.18365 22.959 2.92534 22.6691Z" stroke="black" stroke-width="0.703125" stroke-miterlimit="10" stroke-linecap="round" stroke-linejoin="round"/>
<path d="M4.82677 13.5107L5.59876 10.8431H7.35535C5.84724 15.024 6.7269 17.6424 7.95465 20.4283H6.62987M3.77973 17.165L4.37368 15.1131" stroke="black" stroke-width="0.703125" stroke-miterlimit="10" stroke-linecap="round" stroke-linejoin="round"/>
<path d="M3.76112 17.2208C2.19184 17.0639 0.714296 18.0958 0.351578 19.6743L6.44251 21.0759C6.50631 21.0906 6.54484 21.1145 6.55811 21.056C6.6033 20.8459 6.62589 20.6358 6.62856 20.4269L3.76112 17.2208Z" stroke="black" stroke-width="0.703125" stroke-miterlimit="10" stroke-linecap="round" stroke-linejoin="round"/>
<path d="M13.7506 20.4283L7.95463 20.427M20.025 15.6078C20.5059 16.4455 20.8926 17.4522 20.5591 19.3778" stroke="black" stroke-width="0.703125" stroke-miterlimit="10" stroke-linecap="round" stroke-linejoin="round"/>
<path d="M17.2319 16.895C15.3092 16.895 13.7506 18.4615 13.7506 20.4283H20.5086C20.6282 20.4283 20.7159 20.4443 20.7119 20.3166C20.6548 18.403 19.1187 16.895 17.2319 16.895Z" stroke="black" stroke-width="0.703125" stroke-miterlimit="10" stroke-linecap="round" stroke-linejoin="round"/>
<path d="M14.6263 20.4283C14.702 21.8565 15.8594 22.9922 17.2758 22.9922C18.6922 22.9922 19.8496 21.8565 19.9253 20.4283H14.6263Z" stroke="black" stroke-width="0.703125" stroke-miterlimit="10" stroke-linecap="round" stroke-linejoin="round"/>
<path d="M8.6044 18.8286H7.29959" stroke="black" stroke-width="0.703125" stroke-miterlimit="10" stroke-linecap="round" stroke-linejoin="round"/>
<path d="M9.83214 17.286V15.1144C9.83214 13.0426 10.9124 12.3737 11.7907 12.2779H15.6042C15.6773 13.7155 15.1259 14.3551 13.7187 14.3564L12.4564 14.3577C11.8226 14.3577 11.8226 14.7793 11.8226 15.6078V17.286" stroke="black" stroke-width="0.703125" stroke-miterlimit="10" stroke-linecap="round" stroke-linejoin="round"/>
<path d="M8.6044 18.8286C8.54726 17.5706 9.3086 17.286 9.83215 17.286H11.8226V18.54C11.8226 18.8086 11.6764 18.8286 11.4612 18.8286H8.6044Z" stroke="black" stroke-width="0.703125" stroke-miterlimit="10" stroke-linecap="round" stroke-linejoin="round"/>
</g>
</g>
<defs>
<clipPath id="clip0_598_4080">
<rect width="24" height="24" fill="white"/>
</clipPath>
</defs>
</svg>
