<svg width="24" height="24" viewBox="0 0 24 24" fill="none" xmlns="http://www.w3.org/2000/svg">
<path d="M9.75 11.3107C9.75 11.9074 9.98705 12.4797 10.409 12.9017C10.831 13.3236 11.4033 13.5607 12 13.5607C12.5967 13.5607 13.169 13.3236 13.591 12.9017C14.0129 12.4797 14.25 11.9074 14.25 11.3107C14.25 10.7139 14.0129 10.1416 13.591 9.71968C13.169 9.29772 12.5967 9.06067 12 9.06067C11.4033 9.06067 10.831 9.29772 10.409 9.71968C9.98705 10.1416 9.75 10.7139 9.75 11.3107Z" stroke="#1E2938" stroke-width="1.5" stroke-linecap="round" stroke-linejoin="round"/>
<path d="M16.2427 15.5534L13.0605 18.7357C12.7792 19.0166 12.3979 19.1745 12.0004 19.1745C11.6028 19.1745 11.2215 19.0166 10.9403 18.7357L7.75725 15.5534C6.91817 14.7143 6.34675 13.6452 6.11527 12.4813C5.88378 11.3174 6.00262 10.1111 6.45675 9.01472C6.91089 7.91838 7.67992 6.98133 8.66661 6.32205C9.6533 5.66278 10.8133 5.31089 12 5.31089C13.1867 5.31089 14.3467 5.66278 15.3334 6.32205C16.3201 6.98133 17.0891 7.91838 17.5432 9.01472C17.9974 10.1111 18.1162 11.3174 17.8847 12.4813C17.6532 13.6452 17.0818 14.7143 16.2427 15.5534Z" stroke="#1E2938" stroke-width="1.5" stroke-linecap="round" stroke-linejoin="round"/>
</svg>
