<svg width="30" height="30" viewBox="0 0 30 30" fill="none" xmlns="http://www.w3.org/2000/svg">
<rect width="30" height="30" rx="3.75" fill="#605FF0"/>
<g clip-path="url(#clip0_2034_2061)">
<path d="M14.625 6.7121V8.3475L15 8.17124L15.375 8.3475V6.7121C16.2297 6.53785 16.875 5.78041 16.875 4.875C16.875 3.84119 16.0338 3 15 3C13.9662 3 13.125 3.84119 13.125 4.875C13.125 5.78041 13.7703 6.53785 14.625 6.7121Z" fill="white"/>
<path d="M7.84058 9.71558C8.2142 9.71558 8.57089 9.60647 8.87496 9.40437L9.9825 10.515L10.7062 10.1775L9.40414 8.87537C9.60642 8.57119 9.71558 8.21439 9.71558 7.84058C9.71558 7.3396 9.52039 6.86902 9.16626 6.51489C8.81213 6.16077 8.34155 5.96558 7.84058 5.96558C7.3396 5.96558 6.86865 6.16077 6.51489 6.51489C6.16077 6.86865 5.96558 7.3396 5.96558 7.84058C5.96558 8.34155 6.16077 8.8125 6.51489 9.16626C6.86865 9.52039 7.3396 9.71558 7.84058 9.71558Z" fill="white"/>
<path d="M6.7121 15.375H8.625V14.625H6.7121C6.53785 13.7703 5.78041 13.125 4.875 13.125C3.84119 13.125 3 13.9662 3 15C3 16.0338 3.84119 16.875 4.875 16.875C5.78041 16.875 6.53785 16.2297 6.7121 15.375Z" fill="white"/>
<path d="M15.375 23.2879V21.6525L15 21.8287L14.625 21.6525V23.2879C13.7703 23.4622 13.125 24.2196 13.125 25.125C13.125 26.1588 13.9662 27 15 27C16.0338 27 16.875 26.1588 16.875 25.125C16.875 24.2196 16.2297 23.4622 15.375 23.2879Z" fill="white"/>
<path d="M22.1594 20.2844C21.7858 20.2844 21.4291 20.3935 21.125 20.5956L20.0175 19.485L19.2937 19.8225L20.5958 21.1246C20.3936 21.4288 20.2844 21.7856 20.2844 22.1594C20.2844 22.6604 20.4796 23.131 20.8337 23.4851C21.1878 23.8392 21.6584 24.0344 22.1594 24.0344C22.6604 24.0344 23.1313 23.8392 23.4851 23.4851C23.8392 23.1313 24.0344 22.6604 24.0344 22.1594C24.0344 21.6584 23.8392 21.1875 23.4851 20.8337C23.1313 20.4796 22.6604 20.2844 22.1594 20.2844Z" fill="white"/>
<path d="M25.125 13.125C24.2196 13.125 23.4622 13.7703 23.2879 14.625H21.375V15.375H23.2879C23.4622 16.2297 24.2196 16.875 25.125 16.875C26.1588 16.875 27 16.0338 27 15C27 13.9662 26.1588 13.125 25.125 13.125Z" fill="white"/>
<path d="M9.9825 19.485L8.87496 20.5956C8.57089 20.3935 8.2142 20.2844 7.84058 20.2844C7.3396 20.2844 6.86902 20.4796 6.51489 20.8337C6.16077 21.1879 5.96558 21.6584 5.96558 22.1594C5.96558 22.6604 6.16077 23.1313 6.51489 23.4851C6.86865 23.8392 7.3396 24.0344 7.84058 24.0344C8.34155 24.0344 8.8125 23.8392 9.16626 23.4851C9.52039 23.1313 9.71558 22.6604 9.71558 22.1594C9.71558 21.7856 9.6064 21.4288 9.40414 21.1246L10.7062 19.8225L9.9825 19.485Z" fill="white"/>
<path d="M20.0175 10.515L21.125 9.40437C21.4291 9.60649 21.7858 9.71558 22.1594 9.71558C22.6604 9.71558 23.131 9.52039 23.4851 9.16626C23.8392 8.81213 24.0344 8.34155 24.0344 7.84058C24.0344 7.3396 23.8392 6.86865 23.4851 6.51489C23.1313 6.16077 22.6604 5.96558 22.1594 5.96558C21.6584 5.96558 21.1875 6.16077 20.8337 6.51489C20.4796 6.86865 20.2844 7.3396 20.2844 7.84058C20.2844 8.21439 20.3936 8.57119 20.5958 8.87537L19.2937 10.1775L20.0175 10.515Z" fill="white"/>
<path d="M15 13.8362L20.1816 11.4181L18.1503 10.4702L12.9827 12.8948L15 13.8362Z" fill="white"/>
<path d="M9.8183 11.4181L12.0978 12.4818L17.2651 10.057L15 9L9.8183 11.4181Z" fill="white"/>
<path d="M20.625 18.375V12.0388L15.1586 14.5898C15.1084 14.6133 15.0542 14.625 15 14.625C14.9458 14.625 14.8916 14.6133 14.8414 14.5898L12.375 13.4389V15.75C12.375 15.9573 12.2073 16.125 12 16.125C11.7927 16.125 11.625 15.9573 11.625 15.75V13.0889L9.375 12.0389V18.375L14.625 20.825V16.1246C14.625 15.9173 14.7927 15.7496 15 15.7496C15.2073 15.7496 15.375 15.9173 15.375 16.1246V20.825L20.625 18.375ZM13.8398 18.9587C13.7761 19.0949 13.641 19.1751 13.4996 19.1751C13.4465 19.1751 13.3927 19.1638 13.3414 19.14L12.5914 18.7899C12.4036 18.7024 12.3226 18.479 12.4102 18.2915C12.4977 18.104 12.7207 18.0234 12.9086 18.1102L13.6586 18.4603C13.8464 18.5478 13.9274 18.7712 13.8398 18.9587Z" fill="white"/>
</g>
<defs>
<clipPath id="clip0_2034_2061">
<rect width="24" height="24" fill="white" transform="translate(3 3)"/>
</clipPath>
</defs>
</svg>
