<svg width="59" height="59" viewBox="0 0 59 59" fill="none" xmlns="http://www.w3.org/2000/svg">
<path opacity="0.8" d="M58.2926 47.9822L34.3307 5.44528C32.2875 1.73032 26.7149 1.73032 24.6716 5.44528L0.709799 47.9822C-1.3334 51.6972 1.26709 56.341 5.53935 56.341H53.2773C57.7353 56.1553 60.3358 51.6972 58.2926 47.9822Z" fill="#DC3545"/>
<path d="M29.5012 8.23145L53.4631 50.7684H5.53943L29.5012 8.23145Z" fill="white"/>
<path d="M25.6005 27.7353L27.0866 37.5802C27.2723 38.6946 28.201 39.6234 29.5013 39.6234C30.6158 39.6234 31.7304 38.6946 31.9161 37.5802L33.4021 27.7353C33.7736 25.3205 31.9161 23.2773 29.5013 23.2773C27.0864 23.2772 25.4147 25.3205 25.6005 27.7353Z" fill="#3F4448"/>
<path d="M29.5011 46.1246C30.7322 46.1246 31.7302 45.1266 31.7302 43.8956C31.7302 42.6645 30.7322 41.6665 29.5011 41.6665C28.2701 41.6665 27.2721 42.6645 27.2721 43.8956C27.2721 45.1266 28.2701 46.1246 29.5011 46.1246Z" fill="#3F4448"/>
</svg>
