<svg width="60" height="61" viewBox="0 0 60 61" fill="none" xmlns="http://www.w3.org/2000/svg">
<g clip-path="url(#clip0_751_6260)">
<path d="M36.673 1.2545C36.125 5.36005 35.1232 9.45275 33.3601 13.2117C31.3229 17.5783 28.3096 21.1097 24.4287 23.9473C20.6548 26.7043 16.5063 28.9614 13.0863 32.1791C9.67915 35.3768 7.4686 39.3226 7.13467 44.0293C6.98126 46.1523 7.16107 48.249 7.4686 50.3249C3.63405 45.9791 1.03534 40.5178 0.234041 34.4889L6.43326 28.3067C6.56669 28.1663 6.72724 28.0664 6.90776 27.9994C8.83146 27.3119 11.6307 26.484 14.7567 24.3139C16.594 23.0252 18.6176 21.4299 20.7954 19.4331C25.0573 15.5144 27.0545 12.1228 27.9229 9.49911C28.8912 6.54814 28.4509 4.55848 28.2304 3.85104C28.1905 3.73765 28.0435 3.65778 27.97 3.7241L25.1173 6.34133L9.9403 20.2682L0 29.0477C0.761345 13.1518 13.8947 0.5 29.9864 0.5C32.284 0.5 34.5224 0.766714 36.673 1.2545Z" fill="white"/>
<path d="M55.4711 27.7262L47.3082 14.5403C47.2083 14.367 46.9878 14.3135 46.8137 14.4133L46.6532 14.5003C46.4726 14.6073 46.4127 14.8341 46.5126 15.0081L52.5784 25.6638C52.6783 25.8442 52.6184 26.071 52.4378 26.1708L52.0104 26.4112C51.837 26.5181 51.6094 26.4511 51.5095 26.2778L45.4373 15.6221C45.3374 15.4417 45.1098 15.3818 44.9364 15.4816L44.596 15.6749C44.4155 15.7747 44.3556 16.0022 44.4555 16.1826L50.5213 26.8376C50.6212 27.0109 50.5612 27.2384 50.3807 27.3383L49.9533 27.585C49.7799 27.6848 49.5523 27.6249 49.4452 27.4445L43.3795 16.7888C43.2796 16.6084 43.0519 16.5485 42.8714 16.6483L42.5311 16.8416C42.3577 16.9414 42.2906 17.1689 42.3976 17.3493L48.4634 28.0043C48.5633 28.1848 48.5034 28.4115 48.3229 28.5121L47.8954 28.7524C47.7149 28.8523 47.488 28.7924 47.3881 28.6119L41.3223 17.9562C41.2224 17.7829 40.9948 17.7159 40.8143 17.8228L40.4739 18.0168C40.3005 18.1166 40.2335 18.3441 40.3334 18.5174L46.4056 29.1725C46.5055 29.3529 46.4455 29.5797 46.265 29.6802L45.8376 29.927C45.6571 30.0268 45.4302 29.9669 45.3296 29.7865L39.2638 19.1307C39.1639 18.9503 38.9363 18.8904 38.7557 18.9902L38.5624 19.1036C38.389 19.1971 38.3219 19.4174 38.4154 19.5978L45.6228 33.3244C46.8651 35.5009 49.5437 36.3488 51.7949 35.3539L56.6848 44.1997C54.2802 48.8729 50.6725 52.8387 46.2843 55.6827C43.5386 52.4315 42.2899 47.9986 41.3808 43.9059C40.0915 38.091 38.9627 32.2689 35.0682 27.5558C33.2979 25.4192 31.1202 23.6299 28.6956 22.2878C30.9667 20.0913 32.864 17.5875 34.3068 14.69C36.3511 10.5973 37.4999 6.13733 38.1278 1.61816C50.7467 5.1696 59.9985 16.7467 59.9985 30.4932C59.9985 34.1787 59.337 37.7037 58.1212 40.9614L54.0733 34.0582C56.0705 32.6362 56.7119 29.8991 55.4697 27.7226L55.4711 27.7262Z" fill="white"/>
<path d="M45.0037 56.4672C40.5812 59.0245 35.458 60.5 29.9873 60.5C29.2723 60.5 28.5709 60.4736 27.8695 60.4265L27.7489 50.9596C30.8421 50.0047 33.1732 45.7323 33.1732 40.6048C33.1732 34.7699 30.1535 30.0432 26.4331 30.0432C22.7127 30.0432 19.6866 34.7699 19.6866 40.6048C19.6866 45.7323 22.0249 50.0047 25.1174 50.9596L25.0039 60.0864C18.9652 59.078 13.5345 56.2611 9.28609 52.2147C8.92504 50.1987 8.63177 48.1691 8.58468 46.1124C8.53116 43.5822 8.87224 41.0184 9.97394 38.7214C10.9558 36.6654 12.4057 34.8961 14.049 33.3336C17.5025 30.0553 21.7373 27.8125 25.5319 24.9885C26.2269 24.4743 26.8812 23.9266 27.5227 23.3661C32.526 26.0097 36.1066 30.4561 37.8633 35.8239C39.68 41.3721 40.0546 47.314 42.5926 52.6283C43.2477 54.0104 44.049 55.3055 45.0044 56.4672H45.0037Z" fill="white"/>
</g>
<defs>
<clipPath id="clip0_751_6260">
<rect width="60" height="60" fill="white" transform="translate(0 0.5)"/>
</clipPath>
</defs>
</svg>
