<svg width="100" height="66" viewBox="0 0 100 66" fill="none" xmlns="http://www.w3.org/2000/svg">
<g clip-path="url(#clip0_1975_4497)">
<path d="M9.99759 44.6559H11.3439C11.5184 44.6594 11.6845 44.7312 11.8066 44.8558C11.9288 44.9804 11.9971 45.1479 11.9971 45.3224C11.9971 45.6903 11.7105 45.9889 11.3439 45.9889H9.99759V47.3353C9.9941 47.5097 9.92235 47.6758 9.79773 47.798C9.67311 47.9201 9.50557 47.9885 9.33109 47.9884C9.24429 47.9899 9.15808 47.974 9.07745 47.9419C8.99682 47.9097 8.92337 47.8619 8.86137 47.8011C8.79938 47.7403 8.75006 47.6679 8.71627 47.5879C8.68249 47.508 8.66492 47.4221 8.66458 47.3353V45.9889H7.31824C7.14379 45.9854 6.97767 45.9137 6.85554 45.7891C6.73342 45.6644 6.66503 45.4969 6.66506 45.3224C6.66506 44.9545 6.95166 44.6559 7.31824 44.6559H8.66458V43.3096C8.66807 43.1351 8.73983 42.969 8.86445 42.8469C8.98907 42.7248 9.1566 42.6564 9.33109 42.6564C9.699 42.6564 9.99759 42.943 9.99759 43.3096V44.6559ZM97.9764 39.3239V37.9775C97.9761 37.8907 97.9585 37.8048 97.9247 37.7249C97.8909 37.6449 97.8416 37.5724 97.7796 37.5117C97.7176 37.4509 97.6442 37.4031 97.5635 37.3709C97.4829 37.3388 97.3967 37.3229 97.3099 37.3243C97.1354 37.3243 96.9679 37.3927 96.8433 37.5148C96.7187 37.637 96.6469 37.8031 96.6434 37.9775V39.3239H95.2971C95.2103 39.3242 95.1244 39.3418 95.0444 39.3756C94.9644 39.4093 94.892 39.4587 94.8312 39.5207C94.7705 39.5827 94.7226 39.6561 94.6905 39.7367C94.6583 39.8174 94.6425 39.9036 94.6439 39.9904C94.6439 40.3476 94.9371 40.6569 95.2971 40.6569H96.6434V42.0032C96.6434 42.3698 96.942 42.6564 97.3099 42.6564C97.4844 42.6564 97.6519 42.588 97.7766 42.4659C97.9012 42.3438 97.9729 42.1777 97.9764 42.0032V40.6569H99.3228C99.6893 40.6569 99.9759 40.3583 99.9759 39.9904C99.976 39.8159 99.9076 39.6483 99.7855 39.5237C99.6633 39.3991 99.4972 39.3274 99.3228 39.3239H97.9764ZM49.5507 61.3186H15.9922C15.8172 61.3187 15.644 61.2844 15.4824 61.2174C15.3208 61.1504 15.1741 61.0522 15.0506 60.9283C14.9271 60.8044 14.8293 60.6574 14.7628 60.4956C14.6963 60.3338 14.6624 60.1605 14.6631 59.9856C14.6631 59.2497 15.267 58.6525 15.9922 58.6525H22.0374C21.5708 57.8441 21.3262 56.9266 21.3282 55.9932V17.3225C21.3285 16.6222 21.4669 15.9289 21.7354 15.2822C22.0039 14.6355 22.3973 14.048 22.893 13.5534C23.3887 13.0588 23.977 12.6668 24.6244 12.3997C25.2717 12.1327 25.9653 11.9959 26.6656 11.9971H30.6593V10.6574C30.6596 9.95718 30.798 9.26387 31.0665 8.61714C31.335 7.97041 31.7284 7.38295 32.2241 6.88835C32.7198 6.39376 33.3081 6.00173 33.9555 5.73469C34.6028 5.46764 35.2964 5.33082 35.9967 5.33205H67.9783C68.6786 5.33047 69.3724 5.46705 70.0199 5.73397C70.6674 6.00089 71.2559 6.39291 71.7517 6.88757C72.2475 7.38224 72.6408 7.96983 72.9092 8.61672C73.1775 9.26361 73.3157 9.95708 73.3157 10.6574V49.3281C73.3157 50.2972 73.0571 51.205 72.6052 51.9875H79.9794C80.7166 51.9875 81.3138 52.5793 81.3138 53.3205C81.3138 54.0563 80.7206 54.6535 79.9807 54.6535H63.9846V55.9932C63.9846 56.9623 63.726 57.8701 63.2741 58.6525H63.9886C64.7217 58.6525 65.3176 59.2444 65.3176 59.9856C65.3176 60.7214 64.7138 61.3186 63.9886 61.3186H56.9756C57.5848 62.3397 57.4528 63.678 56.5664 64.5645C56.3193 64.8127 56.0256 65.0097 55.7021 65.1442C55.3786 65.2786 55.0318 65.3478 54.6815 65.3478C54.3312 65.3478 53.9844 65.2786 53.6609 65.1442C53.3374 65.0097 53.0437 64.8127 52.7966 64.5645L49.5507 61.3186ZM54.4242 58.6525H58.6632C60.1295 58.6525 61.3186 57.4662 61.3186 55.9799V17.2598C61.3186 15.8202 60.1668 14.6631 58.7459 14.6631H26.5669C25.1459 14.6631 23.9942 15.8255 23.9942 17.2598V55.9799C23.9942 57.4555 25.1939 58.6525 26.6483 58.6525H46.8834L46.1982 57.966C45.866 57.6356 45.627 57.2233 45.5053 56.7709C45.3836 56.3184 45.3835 55.8418 45.505 55.3893L44.2467 54.1296C42.3566 55.5366 40.0043 56.1767 37.6619 55.9213C35.3195 55.666 33.1604 54.5342 31.6178 52.7531C30.0752 50.9719 29.2634 48.6733 29.3452 46.3184C29.427 43.9636 30.3965 41.7268 32.0589 40.057C33.7261 38.3839 35.9658 37.4052 38.3262 37.3185C40.6866 37.2318 42.9921 38.0435 44.7775 39.5898C46.563 41.1361 47.6956 43.302 47.9469 45.6506C48.1982 47.9992 47.5495 50.3557 46.1316 52.2448L47.3913 53.5045C47.8436 53.3823 48.3202 53.382 48.7728 53.5035C49.2253 53.625 49.6376 53.864 49.968 54.1963L54.4242 58.6525ZM63.9846 51.9875H67.9956C68.7005 51.984 69.3753 51.7016 69.8727 51.202C70.37 50.7025 70.6493 50.0264 70.6497 49.3215V10.6641C70.6497 9.18712 69.4606 7.99807 67.9956 7.99807H35.978C35.2734 8.00195 34.5989 8.2845 34.1018 8.78402C33.6048 9.28354 33.3257 9.95944 33.3253 10.6641V11.9971H58.6472C59.3476 11.9955 60.0413 12.1321 60.6888 12.399C61.3363 12.666 61.9248 13.058 62.4206 13.5526C62.9164 14.0473 63.3097 14.6349 63.5781 15.2818C63.8465 15.9287 63.9846 16.6221 63.9846 17.3225V51.9875ZM16.9959 2.99928H18.9821C19.542 2.99928 19.9952 3.44317 19.9952 3.99904C19.9952 4.5509 19.542 4.9988 18.9821 4.9988H16.9959V6.98498C16.9959 7.54485 16.552 7.99807 15.9961 7.99807C15.864 7.9972 15.7333 7.97031 15.6115 7.91892C15.4897 7.86754 15.3793 7.79267 15.2864 7.69859C15.1936 7.60452 15.1202 7.49308 15.0704 7.37064C15.0207 7.2482 14.9955 7.11715 14.9964 6.98498V4.9988H13.0102C12.8779 5.00003 12.7467 4.97511 12.6241 4.92546C12.5015 4.87582 12.39 4.80244 12.2958 4.70953C12.2017 4.61662 12.1268 4.50603 12.0756 4.3841C12.0243 4.26216 11.9976 4.1313 11.9971 3.99904C11.9971 3.44717 12.4503 2.99928 13.0102 2.99928H14.9964V1.01309C14.9964 0.453224 15.4403 0 15.9961 0C16.548 0 16.9959 0.453224 16.9959 1.01309V2.99928ZM1.33301 59.9856C1.33301 59.2497 1.93687 58.6525 2.66203 58.6525H10.6681C11.4013 58.6525 11.9971 59.2444 11.9971 59.9856C11.9971 60.7214 11.3933 61.3186 10.6681 61.3186H2.66203C2.48711 61.3187 2.31388 61.2844 2.1523 61.2174C1.99072 61.1504 1.84396 61.0522 1.72046 60.9283C1.59696 60.8044 1.49916 60.6574 1.43267 60.4956C1.36618 60.3338 1.33231 60.1605 1.33301 59.9856ZM43.3709 51.369C43.9899 50.75 44.4809 50.0151 44.8159 49.2064C45.1509 48.3976 45.3233 47.5308 45.3233 46.6554C45.3233 45.7801 45.1509 44.9132 44.8159 44.1045C44.4809 43.2957 43.9899 42.5609 43.3709 41.9419C42.7519 41.3229 42.0171 40.8319 41.2083 40.4969C40.3996 40.1619 39.5327 39.9895 38.6574 39.9895C37.782 39.9895 36.9152 40.1619 36.1064 40.4969C35.2977 40.8319 34.5628 41.3229 33.9438 41.9419C32.6937 43.192 31.9914 44.8875 31.9914 46.6554C31.9914 48.4234 32.6937 50.1189 33.9438 51.369C35.1939 52.6191 36.8894 53.3214 38.6574 53.3214C40.4253 53.3214 42.1208 52.6191 43.3709 51.369ZM29.3263 19.9952C29.3263 19.6419 29.4665 19.303 29.7162 19.0531C29.9659 18.8031 30.3046 18.6625 30.658 18.6622H45.3224C45.676 18.6622 46.015 18.8026 46.265 19.0526C46.515 19.3026 46.6554 19.6416 46.6554 19.9952C46.6554 20.3487 46.515 20.6878 46.265 20.9378C46.015 21.1878 45.676 21.3282 45.3224 21.3282H30.6593C30.4841 21.3287 30.3105 21.2946 30.1485 21.2278C29.9866 21.161 29.8394 21.0628 29.7155 20.9389C29.5916 20.8151 29.4935 20.6679 29.4267 20.5059C29.3599 20.344 29.3257 20.1704 29.3263 19.9952ZM29.3263 26.6602C29.3263 25.9244 29.9195 25.3272 30.65 25.3272H51.9968C52.7273 25.3272 53.3205 25.9191 53.3205 26.6602C53.3205 27.3961 52.7273 27.9933 51.9968 27.9933H30.65C30.4754 27.9931 30.3026 27.9584 30.1414 27.8913C29.9803 27.8241 29.8341 27.7257 29.7111 27.6019C29.5881 27.478 29.4907 27.3311 29.4247 27.1695C29.3587 27.0079 29.3252 26.8348 29.3263 26.6602ZM29.3263 33.3253C29.3263 32.5895 29.9208 31.9923 30.6566 31.9923H39.993C40.7275 31.9923 41.3234 32.5842 41.3234 33.3253C41.3234 34.0611 40.7289 34.6583 39.993 34.6583H30.6566C30.4816 34.6587 30.3082 34.6244 30.1465 34.5575C29.9847 34.4906 29.8378 34.3924 29.7142 34.2685C29.5906 34.1446 29.4926 33.9975 29.4261 33.8356C29.3595 33.6738 29.3256 33.5003 29.3263 33.3253ZM3.99904 25.3272C3.47388 25.3272 2.95386 25.2238 2.46867 25.0228C1.98349 24.8219 1.54264 24.5273 1.17129 24.1559C0.799946 23.7846 0.505379 23.3438 0.304409 22.8586C0.103438 22.3734 0 21.8534 0 21.3282C0 20.803 0.103438 20.283 0.304409 19.7978C0.505379 19.3126 0.799946 18.8718 1.17129 18.5005C1.54264 18.1291 1.98349 17.8345 2.46867 17.6336C2.95386 17.4326 3.47388 17.3292 3.99904 17.3292C5.05965 17.3292 6.07682 17.7505 6.82678 18.5005C7.57675 19.2504 7.99807 20.2676 7.99807 21.3282C7.99807 22.3888 7.57675 23.406 6.82678 24.1559C6.07682 24.9059 5.05965 25.3272 3.99904 25.3272ZM3.99904 23.3277C4.26165 23.3278 4.5217 23.2761 4.76433 23.1756C5.00696 23.0751 5.22743 22.9279 5.41314 22.7422C5.59885 22.5565 5.74617 22.3361 5.84667 22.0935C5.94718 21.8508 5.99891 21.5908 5.99891 21.3282C5.99891 21.0656 5.94718 20.8055 5.84667 20.5629C5.74617 20.3203 5.59885 20.0999 5.41314 19.9142C5.22743 19.7285 5.00696 19.5812 4.76433 19.4808C4.5217 19.3803 4.26165 19.3286 3.99904 19.3287C3.46879 19.3288 2.9603 19.5395 2.5854 19.9145C2.21049 20.2894 1.99988 20.798 1.99988 21.3282C1.99988 21.8584 2.21049 22.367 2.5854 22.7419C2.9603 23.1169 3.46879 23.3276 3.99904 23.3277ZM86.6458 17.3292C85.5852 17.3292 84.568 16.9078 83.8181 16.1579C83.0681 15.4079 82.6468 14.3907 82.6468 13.3301C82.6468 12.2695 83.0681 11.2523 83.8181 10.5024C84.568 9.75241 85.5852 9.33109 86.6458 9.33109C87.7064 9.33109 88.7236 9.75241 89.4736 10.5024C90.2235 11.2523 90.6448 12.2695 90.6448 13.3301C90.6448 14.3907 90.2235 15.4079 89.4736 16.1579C88.7236 16.9078 87.7064 17.3292 86.6458 17.3292ZM86.6458 15.3296C86.9084 15.3297 87.1685 15.278 87.4111 15.1775C87.6537 15.0771 87.8742 14.9298 88.0599 14.7441C88.2456 14.5584 88.3929 14.338 88.4934 14.0954C88.594 13.8528 88.6457 13.5927 88.6457 13.3301C88.6457 13.0675 88.594 12.8075 88.4934 12.5649C88.3929 12.3222 88.2456 12.1018 88.0599 11.9161C87.8742 11.7304 87.6537 11.5832 87.4111 11.4827C87.1685 11.3822 86.9084 11.3306 86.6458 11.3306C86.1156 11.3307 85.6071 11.5414 85.2322 11.9164C84.8573 12.2913 84.6466 12.7999 84.6466 13.3301C84.6466 13.8604 84.8573 14.3689 85.2322 14.7439C85.6071 15.1188 86.1156 15.3295 86.6458 15.3296Z" fill="#ABABAB"/>
</g>
<defs>
<clipPath id="clip0_1975_4497">
<rect width="100" height="65.3478" fill="white"/>
</clipPath>
</defs>
</svg>
